<?xml version="1.0" standalone="no"?>
<!DOCTYPE svg PUBLIC "-//W3C//DTD SVG 20010904//EN"
 "http://www.w3.org/TR/2001/REC-SVG-20010904/DTD/svg10.dtd">
<svg version="1.0" xmlns="http://www.w3.org/2000/svg"
 width="260.000000pt" height="260.000000pt" viewBox="0 0 260.000000 260.000000"
 preserveAspectRatio="xMidYMid meet">
<metadata>
Created by potrace 1.11, written by Peter Selinger 2001-2013
</metadata>
<g transform="translate(0.000000,260.000000) scale(0.100000,-0.100000)"
fill="#000000" stroke="none">
<path d="M548 1914 c-125 -30 -227 -105 -275 -203 -24 -48 -28 -68 -28 -141 0
-197 90 -274 428 -365 93 -25 181 -52 196 -59 111 -58 117 -172 11 -234 -41
-25 -54 -27 -155 -27 -99 0 -114 3 -154 25 -62 35 -102 88 -108 144 l-6 46
-130 0 -130 0 7 -62 c13 -130 102 -249 229 -308 85 -40 229 -64 334 -56 206
17 346 93 410 225 25 50 28 67 28 156 0 117 -14 154 -85 226 -63 63 -128 92
-326 143 -256 66 -294 87 -294 158 0 95 61 138 192 138 130 -1 190 -36 213
-127 l12 -48 128 -3 128 -3 -6 61 c-18 202 -205 331 -477 329 -47 0 -111 -7
-142 -15z"/>
<path d="M1370 1300 l0 -600 130 0 130 0 0 236 0 236 173 -4 c151 -3 176 -5
207 -23 57 -34 78 -90 95 -252 8 -78 19 -153 25 -167 l10 -26 129 0 130 0 -15
36 c-8 20 -21 104 -29 188 -20 212 -48 281 -136 324 l-41 21 40 20 c53 27 107
92 129 155 22 68 22 177 0 243 -24 69 -93 145 -165 180 l-57 28 -377 3 -378 3
0 -601z m655 375 c51 -25 75 -72 75 -145 0 -64 -22 -114 -63 -144 -26 -19 -45
-21 -218 -24 l-189 -4 0 172 0 172 178 -4 c152 -3 183 -6 217 -23z"/>
</g>
</svg>
