<?xml version="1.0" standalone="no"?>
<!DOCTYPE svg PUBLIC "-//W3C//DTD SVG 20010904//EN"
 "http://www.w3.org/TR/2001/REC-SVG-20010904/DTD/svg10.dtd">
<svg version="1.0" xmlns="http://www.w3.org/2000/svg"
 width="260.000000pt" height="260.000000pt" viewBox="0 0 260.000000 260.000000"
 preserveAspectRatio="xMidYMid meet">
<metadata>
Created by potrace 1.11, written by Peter Selinger 2001-2013
</metadata>
<g transform="translate(0.000000,260.000000) scale(0.100000,-0.100000)"
fill="#000000" stroke="none">
<path d="M561 1914 c-134 -28 -241 -106 -291 -209 -19 -41 -24 -66 -24 -135
-1 -103 21 -157 90 -220 61 -56 139 -90 324 -139 241 -64 295 -99 295 -186 0
-90 -83 -145 -218 -145 -115 0 -162 15 -218 69 -35 34 -49 56 -54 86 -4 22 -8
46 -10 53 -3 9 -38 12 -131 12 l-127 0 7 -55 c10 -85 42 -159 96 -218 90 -99
225 -148 410 -149 266 -2 432 93 485 277 23 77 17 184 -14 243 -31 61 -97 124
-162 154 -30 14 -133 46 -229 71 -267 69 -290 83 -290 168 0 46 4 55 35 85 59
55 178 67 275 27 61 -25 88 -60 104 -135 l6 -28 127 0 126 0 -6 57 c-8 75 -57
173 -110 218 -113 97 -318 138 -496 99z"/>
<path d="M1370 1300 l0 -600 130 0 130 0 0 235 0 235 163 0 c149 0 167 -2 207
-22 63 -32 89 -87 102 -220 5 -57 15 -130 22 -163 l11 -60 133 -3 133 -3 -14
28 c-19 37 -24 72 -37 226 -14 176 -49 256 -132 294 l-42 20 31 16 c85 44 137
122 152 227 22 163 -46 292 -189 359 l-55 26 -372 3 -373 3 0 -601z m658 377
c51 -28 72 -71 72 -148 0 -52 -5 -73 -23 -100 -41 -62 -70 -69 -269 -69 l-178
0 0 171 0 171 183 -4 c152 -2 187 -6 215 -21z"/>
</g>
</svg>
